<?xml version="1.0" standalone="no"?>
<!DOCTYPE svg PUBLIC "-//W3C//DTD SVG 20010904//EN"
 "http://www.w3.org/TR/2001/REC-SVG-20010904/DTD/svg10.dtd">
<svg version="1.0" xmlns="http://www.w3.org/2000/svg"
 width="960.000000pt" height="960.000000pt" viewBox="0 0 960.000000 960.000000"
 preserveAspectRatio="xMidYMid meet">
<metadata>
Created by potrace 1.11, written by Peter Selinger 2001-2013
</metadata>
<g transform="translate(0.000000,960.000000) scale(0.100000,-0.100000)"
fill="#000000" stroke="none">
<path d="M20 8525 c10 -20 23 -41 28 -48 5 -7 21 -32 34 -57 66 -117 113 -195
120 -198 4 -2 8 -8 8 -13 0 -4 22 -46 49 -91 27 -46 58 -99 69 -118 10 -19 88
-152 172 -295 84 -143 161 -274 170 -291 16 -27 97 -165 120 -204 40 -66 160
-273 160 -275 0 -2 19 -34 42 -71 23 -38 73 -123 111 -189 38 -66 78 -133 88
-150 10 -16 23 -39 29 -50 13 -25 27 -50 175 -300 65 -110 123 -210 129 -222
6 -13 14 -23 19 -23 4 0 7 -5 7 -11 0 -6 22 -48 49 -93 27 -44 58 -97 69 -116
10 -19 87 -151 171 -293 83 -142 151 -261 151 -263 0 -3 11 -20 25 -38 14 -18
25 -35 25 -38 0 -3 37 -68 81 -144 45 -77 93 -159 107 -184 14 -25 33 -57 43
-72 11 -14 19 -29 19 -33 0 -3 13 -25 29 -48 15 -23 30 -46 32 -52 5 -14 81
-145 130 -225 22 -36 42 -73 45 -82 4 -10 10 -18 15 -18 5 0 9 -4 9 -10 0 -5
14 -33 31 -62 32 -54 40 -67 101 -173 19 -33 66 -112 103 -175 37 -63 73 -124
79 -135 6 -11 83 -143 171 -294 129 -221 162 -270 170 -256 5 9 18 26 28 37 9
12 17 24 17 28 0 6 72 131 120 210 47 77 90 154 90 161 0 5 5 9 10 9 6 0 10 4
10 8 0 5 118 211 263 458 144 247 272 465 282 484 11 19 22 37 25 40 3 3 12
19 20 35 8 17 22 41 31 55 9 14 26 41 36 60 11 19 66 113 122 208 55 95 101
177 101 183 0 5 5 9 10 9 6 0 10 5 10 11 0 6 14 30 30 54 17 24 30 46 30 50 0
5 212 370 227 391 4 5 15 23 24 40 9 16 55 95 102 176 48 81 87 152 87 158 0
5 4 10 8 10 5 0 17 18 27 40 10 22 22 40 27 40 4 0 8 5 8 10 0 9 124 226 191
335 10 17 22 36 26 44 3 8 49 86 101 175 52 89 100 170 106 181 6 11 19 31 27
45 9 14 58 97 109 185 51 88 104 178 117 200 13 22 26 48 30 58 3 9 9 17 14
17 5 0 9 5 9 11 0 7 18 40 40 75 22 35 40 68 40 74 0 5 5 10 12 10 6 0 9 3 6
6 -3 3 9 29 28 57 19 28 34 57 34 64 0 7 4 13 8 13 4 0 18 19 30 43 29 55 93
165 113 197 9 14 36 59 60 100 24 41 52 89 62 105 9 17 20 38 23 48 4 9 10 17
14 17 5 0 12 10 16 22 3 12 22 45 40 74 19 29 34 55 34 58 0 3 16 30 35 60 19
30 35 57 35 60 0 3 15 29 33 58 19 29 36 61 40 71 6 16 -150 17 -3187 17
l-3194 0 18 -35z m4830 -846 c0 -4 -29 -57 -65 -118 -36 -62 -65 -116 -65
-122 0 -5 -4 -9 -10 -9 -5 0 -10 -7 -10 -15 0 -8 -4 -15 -10 -15 -5 0 -10 -5
-10 -11 0 -5 -29 -60 -65 -120 -36 -60 -65 -114 -65 -119 0 -6 -4 -10 -8 -10
-4 0 -18 -19 -30 -42 -12 -24 -35 -65 -52 -93 -17 -27 -33 -57 -37 -65 -4 -8
-9 -17 -12 -20 -3 -3 -13 -19 -22 -35 -18 -32 -132 -229 -272 -467 -48 -81
-87 -152 -87 -157 0 -5 -4 -11 -8 -13 -5 -1 -20 -24 -34 -49 -44 -79 -53 -94
-58 -99 -3 -3 -16 -25 -29 -50 -14 -25 -58 -101 -98 -169 -41 -68 -84 -143
-97 -165 -13 -23 -69 -119 -125 -213 -55 -95 -101 -177 -101 -183 0 -5 -3 -10
-8 -10 -4 0 -18 -21 -32 -47 -13 -27 -27 -50 -30 -53 -3 -3 -16 -25 -29 -50
-14 -25 -29 -48 -35 -52 -6 -4 -7 -8 -2 -8 5 0 2 -8 -6 -17 -9 -10 -27 -38
-40 -63 -14 -25 -42 -74 -63 -109 l-38 -64 -15 29 c-8 16 -18 31 -21 34 -3 3
-11 14 -17 25 -6 11 -22 40 -36 65 -14 25 -38 68 -54 95 -15 28 -30 52 -33 55
-3 3 -12 16 -19 29 -8 13 -23 40 -34 60 -12 20 -32 56 -46 81 -14 25 -29 48
-34 51 -6 3 -10 10 -10 15 1 5 -13 32 -31 59 -17 28 -30 53 -29 57 1 3 -5 12
-13 18 -8 7 -15 19 -15 26 0 8 -4 14 -10 14 -5 0 -10 4 -10 10 0 5 -26 54 -58
107 -32 54 -61 105 -65 113 -5 8 -18 31 -30 51 -12 20 -48 82 -81 138 -32 56
-62 104 -67 107 -5 3 -9 14 -9 25 0 10 -3 19 -8 19 -4 0 -16 17 -27 38 -10 20
-24 44 -31 52 -6 8 -23 35 -36 60 -14 25 -36 63 -49 86 -13 22 -51 87 -84 145
-33 57 -63 106 -67 107 -4 2 -8 7 -8 12 0 4 -51 95 -114 201 -62 107 -124 212
-136 234 -13 22 -52 88 -87 148 -35 59 -63 112 -63 117 0 6 -3 10 -8 10 -4 0
-18 21 -31 48 -14 26 -33 58 -42 72 -9 14 -26 41 -37 61 -11 20 -26 47 -34 60
-7 13 -19 32 -27 42 -8 9 -11 17 -7 17 4 0 0 7 -8 16 -9 8 -16 18 -16 22 0 4
745 7 1655 7 910 0 1655 -3 1655 -6z"/>
<path d="M6959 8542 c-8 -10 -18 -26 -22 -35 -3 -9 -22 -42 -42 -72 -19 -31
-35 -57 -35 -60 0 -2 -31 -56 -70 -121 -38 -64 -70 -118 -70 -119 0 -2 -29
-51 -65 -110 -36 -59 -65 -109 -65 -111 0 -3 -20 -37 -43 -77 -41 -68 -83
-139 -208 -354 -30 -50 -61 -104 -71 -120 -9 -15 -44 -75 -78 -133 -34 -58
-71 -121 -82 -140 -64 -111 -375 -642 -399 -681 -16 -25 -29 -51 -29 -57 0 -7
-5 -12 -11 -12 -5 0 -8 -4 -5 -9 4 -5 3 -11 -1 -13 -9 -4 -63 -85 -63 -94 0
-4 -17 -34 -38 -68 -21 -34 -42 -68 -45 -76 -4 -8 -16 -28 -26 -45 -10 -16
-34 -57 -53 -90 -172 -297 -263 -451 -267 -455 -3 -3 -17 -25 -30 -50 -14 -25
-32 -57 -40 -71 -12 -22 -13 -32 -3 -50 19 -40 77 -141 105 -186 15 -24 27
-47 27 -53 0 -5 5 -10 10 -10 6 0 10 -4 10 -9 0 -13 122 -225 132 -229 4 -2 8
-8 8 -13 0 -6 23 -49 51 -97 51 -85 68 -114 110 -189 47 -83 40 -85 110 34 35
59 69 117 75 128 6 11 19 34 30 52 82 138 114 194 114 199 0 4 6 15 14 23 8 9
24 33 35 54 12 21 114 196 226 388 113 192 205 353 205 358 0 5 4 11 8 13 5 2
23 30 42 63 18 33 40 68 48 78 8 9 11 17 6 17 -5 0 -4 4 1 8 14 10 33 41 46
75 6 15 15 27 20 27 5 0 9 4 9 10 0 5 24 50 54 99 30 49 51 92 48 95 -3 3 0 6
7 6 6 0 16 11 20 23 5 13 27 53 48 88 22 35 51 84 65 109 39 70 188 322 206
350 9 14 14 25 12 25 -3 0 10 21 28 47 18 26 32 51 32 57 0 6 4 11 8 11 4 0
13 12 20 28 6 15 23 45 36 67 14 22 30 49 36 60 6 11 21 38 35 60 13 22 29 49
35 60 5 11 22 38 35 60 14 22 35 59 47 83 12 23 26 42 30 42 4 0 8 4 8 10 0 5
20 44 45 86 25 41 45 80 45 85 0 5 3 9 8 9 4 0 12 10 18 23 17 36 59 112 65
117 3 3 72 120 154 260 82 140 174 298 205 350 31 52 68 116 83 143 l28 47
-513 0 c-482 0 -515 -1 -529 -18z"/>
<path d="M8500 8433 c-41 -70 -77 -132 -79 -137 -2 -6 -18 -33 -36 -61 -17
-27 -70 -115 -116 -195 -46 -80 -87 -146 -91 -148 -4 -2 -8 -9 -8 -15 0 -7
-18 -40 -40 -75 -22 -34 -40 -65 -40 -68 0 -2 -11 -23 -26 -45 -23 -36 -46
-76 -78 -134 -6 -11 -34 -58 -61 -104 -47 -78 -59 -98 -114 -196 -13 -22 -27
-44 -31 -50 -4 -5 -17 -26 -28 -46 -41 -73 -47 -84 -58 -99 -6 -8 -22 -35 -35
-60 -13 -25 -29 -52 -35 -60 -6 -8 -24 -37 -39 -65 -51 -93 -109 -190 -118
-196 -5 -3 -7 -8 -6 -10 1 -2 -29 -59 -69 -125 -39 -67 -77 -133 -83 -148 -7
-14 -16 -26 -21 -26 -4 0 -8 -4 -8 -10 0 -5 -18 -39 -40 -75 -22 -36 -40 -70
-40 -75 0 -6 -4 -10 -10 -10 -5 0 -10 -4 -10 -9 0 -5 -28 -57 -62 -116 -35
-58 -72 -122 -83 -141 -11 -18 -42 -71 -69 -116 -27 -45 -56 -96 -66 -112 -9
-17 -63 -109 -119 -203 -55 -95 -101 -177 -101 -183 0 -5 -4 -10 -8 -10 -4 0
-18 -19 -30 -42 -13 -24 -28 -52 -35 -63 -7 -11 -28 -47 -47 -80 -19 -33 -40
-69 -47 -80 -7 -11 -18 -31 -25 -45 -7 -14 -15 -27 -19 -30 -5 -4 -29 -46 -64
-111 -5 -11 -13 -19 -18 -19 -4 0 -6 -4 -2 -9 3 -5 -1 -15 -8 -23 -7 -7 -16
-20 -20 -28 -4 -8 -15 -28 -26 -45 -10 -16 -27 -46 -38 -65 -63 -109 -327
-559 -341 -580 -9 -14 -15 -28 -14 -32 1 -5 -2 -8 -6 -8 -5 0 -17 -18 -27 -40
-21 -46 -21 -47 55 -170 22 -36 44 -74 50 -85 5 -11 21 -38 35 -60 13 -22 34
-58 46 -80 12 -22 28 -48 37 -57 8 -10 12 -18 8 -18 -4 0 2 -13 13 -28 16 -24
87 -142 135 -227 97 -171 109 -188 122 -169 7 11 18 24 24 31 5 7 10 15 10 19
0 3 23 45 51 93 28 47 70 117 93 156 22 38 46 78 53 90 7 11 15 27 20 35 6 13
91 159 123 210 46 76 90 154 90 161 0 4 6 14 13 21 7 7 24 33 38 58 14 25 69
119 122 209 53 90 97 168 97 172 0 5 4 9 8 9 4 0 15 15 23 33 8 17 62 111 118
207 57 96 112 189 122 207 10 17 29 50 43 72 15 22 26 42 26 44 0 2 31 55 68
118 38 63 71 121 75 129 4 8 15 27 25 42 32 50 72 121 72 129 0 5 5 9 10 9 6
0 10 4 10 10 0 5 21 44 46 87 26 43 54 92 64 108 9 17 48 82 85 145 37 63 76
129 86 147 10 17 29 50 43 72 15 22 26 43 26 47 0 3 16 29 35 58 19 29 35 57
35 61 0 5 6 16 14 24 8 9 27 40 42 69 16 29 34 61 39 70 6 9 24 39 40 67 17
27 35 57 40 67 83 142 105 182 105 189 0 5 4 9 9 9 5 0 11 8 15 18 3 9 10 24
16 32 19 29 130 220 130 226 0 2 5 10 10 17 10 11 207 345 224 378 4 8 12 23
19 34 22 36 89 149 107 180 10 17 48 82 85 145 37 63 79 135 93 160 13 25 28
50 32 55 8 10 117 196 167 283 14 24 38 65 53 90 16 26 41 70 55 97 15 28 33
57 41 66 8 8 14 21 14 27 0 6 6 17 13 24 12 13 19 24 58 94 l19 34 -513 0
-513 0 -74 -127z"/>
<path d="M0 1518 l0 -438 23 -1 c12 0 37 -1 55 -2 17 -1 32 1 32 5 0 3 8 5 18
3 58 -12 82 -14 78 -7 -3 5 10 7 27 5 71 -7 197 -8 197 -1 0 3 8 5 18 3 58
-12 82 -14 78 -7 -3 5 10 7 27 5 58 -6 127 -6 133 -1 3 3 21 2 40 -2 23 -5 34
-4 34 4 0 7 3 7 8 1 8 -11 62 -15 62 -4 0 3 20 3 45 -1 29 -4 46 -3 49 4 3 7
5 6 5 -2 1 -9 6 -10 20 -2 11 5 22 6 25 1 3 -4 18 -7 33 -5 36 5 72 5 156 2
37 -2 67 0 67 4 0 3 8 5 18 3 58 -12 82 -14 78 -7 -5 9 52 7 60 -1 3 -3 19 -1
35 3 16 5 31 5 34 1 2 -5 17 -7 32 -5 38 5 81 5 121 1 18 -2 35 0 38 4 2 4 20
3 39 -1 24 -5 35 -4 35 4 0 7 3 7 8 1 8 -11 62 -15 62 -4 0 3 20 3 45 -1 30
-5 45 -3 45 4 0 7 3 7 8 1 8 -11 142 -14 142 -3 0 3 8 5 18 3 58 -12 82 -14
78 -7 -3 5 10 7 27 5 71 -7 197 -8 197 -1 0 3 8 5 18 3 58 -12 82 -14 78 -7
-3 5 10 7 27 5 71 -7 197 -8 197 -1 0 3 8 5 18 3 58 -12 82 -14 78 -7 -3 5 10
7 27 5 71 -7 197 -8 197 -1 0 3 8 5 18 3 58 -12 82 -14 78 -7 -3 5 10 7 27 5
58 -6 127 -6 133 -1 3 3 21 2 40 -2 23 -5 34 -4 34 4 0 7 3 7 8 1 8 -11 62
-15 62 -4 0 3 20 3 45 -1 29 -4 46 -3 49 4 3 7 5 6 5 -2 1 -9 6 -10 20 -2 11
5 22 6 25 1 3 -4 18 -7 33 -5 36 5 72 5 156 2 37 -2 67 0 67 4 0 3 8 5 18 3
58 -12 82 -14 78 -7 -5 9 52 7 60 -1 3 -3 19 -1 35 3 16 5 31 5 34 1 2 -5 17
-7 32 -5 38 5 81 5 121 1 18 -2 35 0 38 4 2 4 20 3 39 -1 24 -5 35 -4 35 4 0
7 3 7 8 1 8 -11 62 -15 62 -4 0 3 20 3 45 -1 30 -5 45 -3 45 4 0 7 3 7 8 1 8
-11 142 -14 142 -3 0 3 8 5 18 3 58 -12 82 -14 78 -7 -3 5 10 7 27 5 71 -7
197 -8 197 -1 0 3 8 5 18 3 58 -12 82 -14 78 -7 -3 5 10 7 27 5 71 -7 197 -8
197 -1 0 3 8 5 18 3 58 -12 82 -14 78 -7 -3 5 10 7 27 5 71 -7 197 -8 197 -1
0 3 8 5 18 3 58 -12 82 -14 78 -7 -3 5 10 7 27 5 58 -6 127 -6 133 -1 3 3 21
2 40 -2 23 -5 34 -4 34 4 0 7 3 7 8 1 8 -11 62 -15 62 -4 0 3 20 3 45 -1 29
-4 46 -3 49 4 3 7 5 6 5 -2 1 -9 6 -10 20 -2 11 5 22 6 25 1 3 -4 18 -7 33 -5
36 5 72 5 156 2 37 -2 67 0 67 4 0 3 8 5 18 3 58 -12 82 -14 78 -7 -5 9 52 7
60 -1 3 -3 19 -1 35 3 16 5 31 5 34 1 2 -5 17 -7 32 -5 38 5 81 5 121 1 18 -2
35 0 38 4 2 4 20 3 39 -1 24 -5 35 -4 35 4 0 7 3 7 8 1 8 -11 62 -15 62 -4 0
3 20 3 45 -1 30 -5 45 -3 45 4 0 7 3 7 8 1 8 -11 142 -14 142 -3 0 3 8 5 18 3
58 -12 82 -14 78 -7 -3 5 10 7 27 5 71 -7 197 -8 197 -1 0 3 8 5 18 3 58 -12
82 -14 78 -7 -3 5 10 7 27 5 71 -7 197 -8 197 -1 0 3 8 5 18 3 58 -12 82 -14
78 -7 -3 5 10 7 27 5 71 -7 197 -8 197 -1 0 3 8 5 18 3 58 -12 82 -14 78 -7
-3 5 10 7 27 5 58 -6 127 -6 133 -1 3 3 21 2 40 -2 23 -5 34 -4 34 4 0 7 3 7
8 1 8 -11 62 -15 62 -4 0 3 20 3 45 -1 29 -4 46 -3 49 4 3 7 5 6 5 -2 1 -9 6
-10 20 -2 11 5 22 6 25 1 3 -4 18 -7 33 -5 36 5 72 5 156 2 37 -2 67 0 67 4 0
3 8 5 18 3 58 -12 82 -14 78 -7 -5 9 52 7 60 -1 3 -3 19 -1 35 3 16 5 31 5 34
1 2 -5 17 -7 32 -5 38 5 81 5 121 1 18 -2 35 0 38 4 2 4 20 3 39 -1 24 -5 35
-4 35 4 0 7 3 7 8 1 9 -12 62 -14 62 -2 0 4 5 5 11 1 14 -8 89 -7 97 1 8 8 10
864 2 866 -3 1 -2159 2 -4792 3 l-4788 1 0 -437z"/>
</g>
</svg>
